<svg width="40" height="40" viewBox="0 0 40 40" fill="none" xmlns="http://www.w3.org/2000/svg">
<path d="M9.91669 6C10.9167 5 10.1667 2 8.47869 2C6.79069 2 6.91669 4 7.91669 4C8.91669 4 8.91669 6 8.91669 7C8.91669 8 9.91669 6 9.91669 6ZM5.73369 7.72C6.73369 6.72 5.98369 3.72 4.29569 3.72C2.60769 3.72 2.73369 5.72 3.73369 5.72C4.73369 5.72 4.73369 7.72 4.73369 8.72C4.73369 9.72 5.73369 7.72 5.73369 7.72Z" fill="#AA8DD8"/>
<path d="M32.1088 34.856C32.2978 35.664 33.3358 37.136 34.1408 36.947C34.9468 36.757 35.2178 34.976 35.0288 34.17C34.8398 33.362 34.0308 32.863 33.2248 33.053C32.4198 33.243 31.9188 34.05 32.1088 34.856V34.856ZM26.6748 35.505C26.6778 36.335 27.3558 38.003 28.1838 38C29.0118 37.996 29.6778 36.323 29.6748 35.494C29.6718 34.665 28.9978 33.997 28.1698 33.999C27.3418 34.003 26.6718 34.676 26.6748 35.505V35.505ZM21.4038 33.059C21.0778 33.823 21.0388 35.622 21.7998 35.949C22.5628 36.273 23.8368 35.002 24.1628 34.239C24.4878 33.477 24.1348 32.596 23.3738 32.269C22.6118 31.944 21.7308 32.296 21.4038 33.059V33.059ZM16.3728 22.019C15.5608 22.191 14.0648 23.192 14.2338 24.002C14.4068 24.812 16.1788 25.126 16.9908 24.955C17.8018 24.784 18.3198 23.988 18.1508 23.178C17.9788 22.368 17.1858 21.848 16.3728 22.019ZM14.3358 17.019C13.5238 17.191 12.0278 18.192 12.1968 19.002C12.3698 19.812 14.1418 20.126 14.9538 19.955C15.7648 19.784 16.2828 18.988 16.1138 18.178C15.9418 17.368 15.1478 16.848 14.3358 17.019V17.019Z" fill="#744EAA"/>
<path d="M29.7458 36C32.5768 36 34.6718 35.123 35.0118 34.973C37.2828 33.963 38.3048 31.304 37.2958 29.034C36.2968 26.784 33.6798 25.759 31.4238 26.72C31.2908 26.77 29.6308 27.369 28.0808 26.648C26.2298 25.787 25.0858 23.339 24.4528 21.439C24.3088 21.009 24.0678 20.165 23.7668 19.123C21.9008 12.652 20.9348 10.838 19.7838 9.30299C16.0728 4.35199 10.1918 4.00699 7.3008 4.58699C4.8638 5.07399 3.2828 7.44499 3.7708 9.88199C4.2588 12.32 6.6308 13.902 9.0668 13.412C9.2288 13.386 11.2708 13.106 12.4908 14.581C13.1338 15.868 14.5708 19.709 15.1208 21.615C15.4668 22.814 15.7498 23.786 15.9148 24.282C17.6878 29.599 20.5808 33.175 24.5178 34.911C26.3698 35.729 28.1718 36 29.7458 36Z" fill="#9266CC"/>
<path d="M9.18359 8C9.73588 8 10.1836 7.55228 10.1836 7C10.1836 6.44772 9.73588 6 9.18359 6C8.63131 6 8.18359 6.44772 8.18359 7C8.18359 7.55228 8.63131 8 9.18359 8Z" fill="#202024"/>
<path d="M33.4246 34.964C33.3356 34.964 33.2446 34.952 33.1556 34.928C32.6236 34.78 32.3116 34.229 32.4596 33.697C33.2166 30.975 31.6896 29.155 31.6746 29.137C31.3156 28.718 31.3626 28.086 31.7816 27.727C32.1996 27.368 32.8326 27.415 33.1916 27.834C33.2836 27.941 35.4256 30.494 34.3866 34.231C34.2646 34.674 33.8616 34.964 33.4246 34.964V34.964ZM26.2256 34.401C25.9806 34.401 25.7356 34.312 25.5416 34.131C25.1386 33.753 25.1176 33.12 25.4946 32.717C26.9796 31.13 26.9476 28.524 26.9466 28.497C26.9306 27.945 27.3656 27.485 27.9186 27.469C28.4606 27.464 28.9316 27.888 28.9466 28.441C28.9506 28.58 29.0196 31.878 26.9556 34.085C26.7586 34.295 26.4916 34.401 26.2256 34.401V34.401ZM17.6836 25.705C17.2036 25.705 16.7796 25.358 16.6986 24.868C16.6086 24.324 16.9766 23.808 17.5216 23.719C20.5956 23.209 22.2956 21.342 22.3126 21.323C22.6776 20.913 23.3106 20.874 23.7216 21.239C24.1336 21.604 24.1746 22.232 23.8126 22.645C23.7256 22.744 21.6566 25.06 17.8486 25.691C17.7926 25.701 17.7376 25.705 17.6836 25.705V25.705ZM20.6046 30.562C20.1796 30.562 19.7856 30.29 19.6506 29.864C19.4846 29.338 19.7766 28.775 20.3026 28.609C22.9956 27.756 24.1826 25.779 24.1946 25.759C24.4746 25.282 25.0866 25.122 25.5626 25.402C26.0396 25.681 26.1986 26.295 25.9196 26.77C25.8566 26.878 24.3246 29.433 20.9066 30.514C20.8056 30.547 20.7036 30.562 20.6046 30.562V30.562ZM15.9856 19.892C15.4896 19.892 15.0586 19.523 14.9946 19.017C14.9256 18.469 15.3136 17.969 15.8616 17.899C18.5506 17.559 20.5186 15.928 20.5376 15.911C20.9596 15.557 21.5906 15.608 21.9456 16.03C22.3016 16.451 22.2506 17.08 21.8306 17.437C21.7336 17.52 19.4106 19.466 16.1126 19.883C16.0696 19.889 16.0276 19.892 15.9856 19.892V19.892ZM14.1646 15.125C13.7396 15.125 13.3456 14.852 13.2106 14.424C13.0456 13.897 13.3376 13.336 13.8646 13.17C16.9946 12.187 18.1176 10.478 18.1636 10.406C18.4586 9.94397 19.0746 9.80097 19.5386 10.094C20.0036 10.386 20.1496 10.993 19.8626 11.46C19.8026 11.557 18.3566 13.856 14.4636 15.079C14.3646 15.11 14.2636 15.125 14.1646 15.125V15.125Z" fill="#744EAA"/>
</svg>
